# xmcd
#
# Track frame offsets:
#	150
#	13464
#	26521
#	37388
#	49407
#	76629
#	89278
#	107540
#	120543
#	137197
#	152917
#	166797
#
# Disc length: 2375 seconds
#
# Revision: 0
# Processed by: cddbd v1.4PL0 Copyright (c) Steve Scherf et al.
# Submitted via: dBpowerAMP V4.0
#
DISCID=9809450c
DTITLE=Tommy Hunter - Songs Of Inspiration Volume 2
DYEAR=1900
DGENRE=
TTITLE0=In The Garden
TTITLE1=These Hands
TTITLE2=Rock Of Ages
TTITLE3=Unclouded Day
TTITLE4=How Great Thou Art
TTITLE5=Abide With Me
TTITLE6=It Is No Secret
TTITLE7=This World Is Not My Home
TTITLE8=Just A Closer Walk With Thee
TTITLE9=Peace In The Valley
TTITLE10=The Flowers, The Sunset, And The Trees
TTITLE11=May The Good Lord Keep And Bless You
EXTD=
EXTT0=
EXTT1=
EXTT2=
EXTT3=
EXTT4=
EXTT5=
EXTT6=
EXTT7=
EXTT8=
EXTT9=
EXTT10=
EXTT11=
PLAYORDER=
